<svg width="18" height="18" viewBox="0 0 18 18" fill="none" xmlns="http://www.w3.org/2000/svg">
<path d="M0 2C0 0.895431 1.07402 0 2.39889 0H11.5186L17.9917 5.75229V16C17.9917 17.1046 16.9177 18 15.5928 18H2.39889C1.07402 18 0 17.1046 0 16V2Z" fill="#00B5BC"/>
<path d="M18 5.75229H13.3596C12.3428 5.75229 11.5186 5.06546 11.5186 4.21821V0L18 5.75229Z" fill="#19CFD5"/>
<path d="M2.5927 13.2477V11.0292H3.31511V12.7624H4.39094V13.2477H2.5927Z" fill="white"/>
<path d="M7.15718 12.1384C7.15718 12.3854 7.09957 12.5938 6.98437 12.7635C6.86916 12.9325 6.71368 13.0607 6.51791 13.148C6.32215 13.2347 6.10387 13.278 5.86306 13.278C5.62052 13.278 5.40137 13.2343 5.20561 13.147C5.01071 13.0589 4.85566 12.9303 4.74046 12.7613C4.62612 12.5916 4.56895 12.384 4.56895 12.1384C4.56895 11.8915 4.62612 11.6835 4.74046 11.5145C4.85566 11.3448 5.01071 11.2166 5.20561 11.1299C5.40137 11.0426 5.62052 10.9989 5.86306 10.9989C6.10387 10.9989 6.32215 11.0426 6.51791 11.1299C6.71368 11.2166 6.86916 11.3448 6.98437 11.5145C7.09957 11.6835 7.15718 11.8915 7.15718 12.1384ZM6.41397 12.1384C6.41397 12.0056 6.39275 11.8936 6.3503 11.8026C6.30872 11.7109 6.24679 11.6416 6.1645 11.5947C6.08308 11.547 5.9826 11.5232 5.86306 11.5232C5.74352 11.5232 5.64261 11.547 5.56032 11.5947C5.4789 11.6416 5.41696 11.7109 5.37452 11.8026C5.33294 11.8936 5.31215 12.0056 5.31215 12.1384C5.31215 12.2713 5.33294 12.3836 5.37452 12.4753C5.41696 12.5663 5.4789 12.6357 5.56032 12.6833C5.64261 12.7303 5.74352 12.7537 5.86306 12.7537C5.9826 12.7537 6.08308 12.7303 6.1645 12.6833C6.24679 12.6357 6.30872 12.5663 6.3503 12.4753C6.39275 12.3836 6.41397 12.2713 6.41397 12.1384Z" fill="white"/>
<path d="M7.2936 11.5145V11.0292H9.60638V11.5145H8.806V13.2477H8.09398V11.5145H7.2936Z" fill="white"/>
<path d="M9.8055 11.5145V11.0292H12.1183V11.5145H11.3179V13.2477H10.6059V11.5145H9.8055Z" fill="white"/>
<path d="M13.1126 11.0292V13.2477H12.3901V11.0292H13.1126Z" fill="white"/>
<path d="M13.4549 13.2477V11.0292H15.3727V11.5145H14.1774V11.8958H15.274V12.3811H14.1774V12.7624H15.3675V13.2477H13.4549Z" fill="white"/>
</svg>
