<svg width="18" height="18" viewBox="0 0 18 18" fill="none" xmlns="http://www.w3.org/2000/svg">
<path d="M0 2C0 0.895431 1.07402 0 2.39889 0H11.5186L17.9917 5.75229V16C17.9917 17.1046 16.9177 18 15.5928 18H2.39889C1.07402 18 0 17.1046 0 16V2Z" fill="#FF6600"/>
<path d="M18 5.75229H13.3596C12.3428 5.75229 11.5186 5.06546 11.5186 4.21821V0L18 5.75229Z" fill="#FF944D"/>
<path d="M5.3693 11.5793C5.35883 11.4702 5.30978 11.3852 5.22213 11.3241C5.1358 11.263 5.00433 11.2325 4.82773 11.2325C4.71522 11.2325 4.623 11.2439 4.55105 11.2668C4.48041 11.2886 4.42809 11.3186 4.39407 11.3568C4.36006 11.395 4.3424 11.4386 4.34109 11.4877C4.33848 11.528 4.34698 11.5646 4.3666 11.5973C4.38753 11.6289 4.42024 11.6578 4.46471 11.684C4.50919 11.7091 4.5661 11.732 4.63543 11.7527C4.70476 11.7734 4.78717 11.792 4.88267 11.8083L5.21232 11.8672C5.43471 11.9065 5.62504 11.9583 5.78333 12.0226C5.94162 12.087 6.07112 12.1628 6.17185 12.25C6.27258 12.3362 6.34649 12.4333 6.39358 12.5412C6.44198 12.6492 6.46684 12.767 6.46815 12.8946C6.46684 13.1149 6.40078 13.3014 6.26996 13.4541C6.13915 13.6068 5.95208 13.7229 5.70876 13.8025C5.46676 13.8822 5.17569 13.922 4.83557 13.922C4.4863 13.922 4.1815 13.8789 3.92118 13.7927C3.66216 13.7066 3.46071 13.574 3.31681 13.3952C3.17422 13.2152 3.10228 12.9851 3.10097 12.7048H4.13702C4.14356 12.8073 4.1743 12.8935 4.22925 12.9633C4.28419 13.0331 4.36137 13.086 4.46079 13.122C4.56152 13.158 4.68121 13.176 4.81988 13.176C4.9363 13.176 5.03376 13.164 5.11225 13.14C5.19074 13.116 5.25026 13.0827 5.29081 13.0402C5.33136 12.9977 5.35229 12.9491 5.3536 12.8946C5.35229 12.8433 5.33202 12.7986 5.29277 12.7604C5.25484 12.7212 5.19205 12.6863 5.1044 12.6557C5.01675 12.6241 4.89837 12.5947 4.74924 12.5674L4.34894 12.4954C3.99313 12.4311 3.71253 12.3236 3.50715 12.1731C3.30308 12.0215 3.2017 11.8149 3.203 11.5531C3.2017 11.3404 3.26972 11.1545 3.40708 10.9953C3.54574 10.8349 3.73738 10.7101 3.98201 10.6206C4.22794 10.5312 4.50985 10.4865 4.82773 10.4865C5.15215 10.4865 5.43274 10.5317 5.66952 10.6223C5.9063 10.7128 6.08878 10.8404 6.21698 11.0051C6.34649 11.1687 6.4119 11.3601 6.4132 11.5793H5.3693Z" fill="white"/>
<path d="M7.982 10.5323L8.80614 12.8946H8.83753L9.66167 10.5323H10.8939L9.56748 13.8827H8.07619L6.74972 10.5323H7.982Z" fill="white"/>
<path d="M13.6371 11.6382C13.6201 11.5804 13.5933 11.5297 13.5567 11.486C13.5201 11.4413 13.4743 11.4037 13.4193 11.3732C13.3657 11.3415 13.3029 11.3181 13.231 11.3028C13.1603 11.2865 13.0825 11.2783 12.9974 11.2783C12.8143 11.2783 12.658 11.3148 12.5285 11.3879C12.4003 11.461 12.3022 11.5662 12.2341 11.7036C12.1674 11.841 12.1341 12.0068 12.1341 12.2009C12.1341 12.3973 12.1661 12.5652 12.2302 12.7048C12.2943 12.8444 12.3898 12.9513 12.5167 13.0255C12.6436 13.0996 12.8012 13.1367 12.9896 13.1367C13.1557 13.1367 13.2937 13.1165 13.4036 13.0762C13.5148 13.0358 13.5979 12.9786 13.6528 12.9044C13.7078 12.8302 13.7352 12.743 13.7352 12.6427L13.9236 12.659H13.0053V12.0112H14.787V12.4758C14.787 12.7812 14.7092 13.0424 14.5535 13.2594C14.3991 13.4753 14.1859 13.6411 13.9138 13.7567C13.643 13.8712 13.3323 13.9285 12.9817 13.9285C12.5906 13.9285 12.2472 13.8593 11.9516 13.7207C11.6559 13.5822 11.4251 13.3848 11.2589 13.1285C11.0941 12.8722 11.0117 12.5674 11.0117 12.214C11.0117 11.937 11.062 11.6916 11.1628 11.4779C11.2648 11.2641 11.4061 11.0836 11.5866 10.9364C11.7671 10.788 11.9758 10.6763 12.2126 10.601C12.4493 10.5247 12.7031 10.4865 12.9739 10.4865C13.212 10.4865 13.4331 10.5148 13.6371 10.5716C13.8425 10.6272 14.0237 10.7068 14.1807 10.8104C14.339 10.9129 14.4665 11.0345 14.5633 11.1752C14.6601 11.3159 14.719 11.4702 14.7399 11.6382H13.6371Z" fill="white"/>
</svg>
