<svg width="14" height="14" viewBox="0 0 14 14" fill="none" xmlns="http://www.w3.org/2000/svg">
<path d="M5.79999 6.4V10M8.19999 6.4V10M11.8 3.4L10.8485 11.8C10.8485 12.1183 10.7221 12.4235 10.4971 12.6485C10.272 12.8736 9.96678 13 9.64852 13H4.35148C4.03322 13 3.72799 12.8736 3.50295 12.6485C3.2779 12.4235 3.15148 12.1183 3.15148 11.8L2.2 3.4M1 3.4H13M4.59998 3.4V2.2C4.59998 1.88174 4.72641 1.57652 4.95146 1.35147C5.1765 1.12643 5.48173 1 5.79999 1H8.19999C8.51825 1 8.82348 1.12643 9.04852 1.35147C9.27356 1.57652 9.39999 1.88174 9.39999 2.2V3.4" stroke="black" stroke-linecap="round" stroke-linejoin="round"/>
</svg>
