<svg width="36" height="36" viewBox="0 0 36 36" fill="none" xmlns="http://www.w3.org/2000/svg">
<rect width="36" height="36" fill="#71E0FF"/>
<rect width="36" height="36" fill="url(#paint0_radial_44_464)"/>
<rect width="36" height="36" fill="url(#paint1_radial_44_464)"/>
<rect width="36" height="36" fill="url(#paint2_radial_44_464)"/>
<rect width="36" height="36" fill="url(#paint3_radial_44_464)"/>
<path fill-rule="evenodd" clip-rule="evenodd" d="M23.8702 12.1297C23.6706 11.9301 23.4336 11.7717 23.1728 11.6637C22.9119 11.5556 22.6324 11.5 22.35 11.5C22.0677 11.5 21.7881 11.5556 21.5273 11.6637C21.2664 11.7717 21.0294 11.9301 20.8298 12.1297L19.7313 13.2282C19.3311 13.0358 18.881 12.9725 18.4432 13.0471C18.0055 13.1217 17.6017 13.3305 17.2878 13.6445L16.7769 14.1561C16.6437 14.2892 16.5381 14.4472 16.466 14.6211C16.394 14.795 16.3569 14.9814 16.3569 15.1696C16.3569 15.3579 16.394 15.5443 16.466 15.7182C16.5381 15.8921 16.6437 16.0501 16.7769 16.1832L12.1292 20.8299C11.9296 21.0296 11.7713 21.2667 11.6633 21.5276C11.5554 21.7885 11.4999 22.0681 11.5 22.3504V23.6402C11.5 23.8682 11.5906 24.0869 11.7519 24.2482C11.9131 24.4094 12.1318 24.5 12.3599 24.5H13.6497C14.2197 24.4995 14.7661 24.2727 15.1689 23.8694L19.8166 19.2234C19.9497 19.3566 20.1077 19.4622 20.2816 19.5342C20.4555 19.6063 20.6419 19.6434 20.8302 19.6434C21.0184 19.6434 21.2048 19.6063 21.3787 19.5342C21.5527 19.4622 21.7107 19.3566 21.8438 19.2234L22.3554 18.7111C22.6694 18.3972 22.8782 17.9935 22.9528 17.5557C23.0274 17.118 22.9641 16.6679 22.7717 16.2677L23.8702 15.17C24.0699 14.9704 24.2283 14.7334 24.3363 14.4726C24.4444 14.2117 24.5 13.9322 24.5 13.6499C24.5 13.3675 24.4444 13.088 24.3363 12.8272C24.2283 12.5663 24.0699 12.3293 23.8702 12.1297ZM13.1431 21.8438L17.7901 17.1964L18.8033 18.2095L14.1563 22.857C14.022 22.9914 13.8398 23.0669 13.6497 23.0669H12.9331V22.3504C12.9332 22.1604 13.0087 21.9781 13.1431 21.8438Z" fill="black"/>
<defs>
<radialGradient id="paint0_radial_44_464" cx="0" cy="0" r="1" gradientUnits="userSpaceOnUse" gradientTransform="translate(35 4.5) rotate(139.086) scale(39.6989)">
<stop offset="0.317308" stop-color="#FFD869"/>
<stop offset="1" stop-color="#83E2FC" stop-opacity="0"/>
</radialGradient>
<radialGradient id="paint1_radial_44_464" cx="0" cy="0" r="1" gradientUnits="userSpaceOnUse" gradientTransform="rotate(45) scale(50.9117)">
<stop offset="0.288462" stop-color="#FF7D62"/>
<stop offset="1" stop-color="#98DEE1" stop-opacity="0"/>
</radialGradient>
<radialGradient id="paint2_radial_44_464" cx="0" cy="0" r="1" gradientUnits="userSpaceOnUse" gradientTransform="translate(-5.5 25.5) rotate(-21.8014) scale(35.0036 29.2023)">
<stop offset="0.288462" stop-color="#FF4AFA"/>
<stop offset="1" stop-color="#98DEE1" stop-opacity="0"/>
</radialGradient>
<radialGradient id="paint3_radial_44_464" cx="0" cy="0" r="1" gradientUnits="userSpaceOnUse" gradientTransform="translate(12 36) rotate(-57.45) scale(27.8792)">
<stop stop-color="#456DFF"/>
<stop offset="1" stop-color="#98DEE1" stop-opacity="0"/>
</radialGradient>
</defs>
</svg>
