<svg width="50" height="54" viewBox="0 0 50 54" fill="none" xmlns="http://www.w3.org/2000/svg">
<path d="M31.262 0.511597V10.8128C31.262 12.2079 31.8178 13.5485 32.8089 14.5368C33.8026 15.5262 35.1479 16.0814 36.5501 16.0809H48.3667" stroke="currentColor" stroke-linecap="round" stroke-linejoin="round"/>
<path d="M48.6332 17.1693V41.7135C48.5763 43.3189 48.2023 44.8972 47.5327 46.3574C46.863 47.8176 45.9111 49.1309 44.7316 50.2215C43.5511 51.3171 42.1664 52.1695 40.6564 52.7298C39.1464 53.2901 37.5409 53.5475 35.9314 53.4871H14.1889C12.5696 53.5611 10.9516 53.3148 9.42777 52.7623C7.90389 52.2098 6.50405 51.3619 5.3085 50.2673C4.11758 49.1737 3.15585 47.8544 2.47917 46.386C1.8025 44.9176 1.42437 43.3293 1.36676 41.7135V12.2823C1.42364 10.6768 1.79767 9.09855 2.46729 7.63834C3.13692 6.17814 4.08891 4.8649 5.26839 3.77429C6.44885 2.67863 7.83362 1.82629 9.34358 1.26595C10.8535 0.705614 12.4591 0.448266 14.0685 0.508609H30.4371C32.9358 0.499781 35.3478 1.42433 37.2005 3.1011L45.6798 10.8986C46.5846 11.678 47.3152 12.6392 47.824 13.7196C48.3329 14.8 48.6086 15.9754 48.6332 17.1693Z" stroke="currentColor" stroke-linecap="round" stroke-linejoin="round"/>
<path d="M25 22.7009V42.106" stroke="currentColor" stroke-miterlimit="10" stroke-linecap="round"/>
<path d="M33.8975 30.8681L26.2633 23.2339C26.0981 23.0667 25.9014 22.934 25.6845 22.8434C25.4677 22.7528 25.235 22.7062 25 22.7062C24.765 22.7062 24.5323 22.7528 24.3154 22.8434C24.0986 22.934 23.9019 23.0667 23.7367 23.2339L16.1024 30.871" stroke="currentColor" stroke-linecap="round" stroke-linejoin="round"/>
</svg>
